# xmcd CD database file
#
# Track frame offsets:
#	150
#	12781
#	25550
#	36523
#	50487
#	64772
#	80541
#	95937
#	110176
#	123814
#	137593
#	150963
#	165553
#	178764
#	192420
#	208582
#	223980
#	236583
#	248167
#	263861
#	276476
#	290859
#	304546
#	318538
#
# Disc length: 4467 seconds
#
# Revision: 0
# Processed by: cddbd v1.5.2PL0 Copyright (c) Steve Scherf et al.
# Submitted via: CDex 1.70beta2
#
DISCID=68117118
DTITLE=Various Artist - That Devilin' Tune - Volume 2 Disk 5
DYEAR=1900
DGENRE=Jazz
TTITLE0=West Coast Rag - William Ezell
TTITLE1=Avenue Strut - Huerve Duerson
TTITLE2=En Sens Unique - Stellio Orchestra Antilles
TTITLE3=Serpent Maigre - L'Orchestra Antilles
TTITLE4=Smashing Thirds - Fats Waller
TTITLE5=Jungle Crawl - Tiny Parham
TTITLE6=Market Street Stomp - The Missourians
TTITLE7=Bright Boy Blues - Cecil Scott
TTITLE8=Nobody's Sweetheart - Fred Elizade
TTITLE9=Slow as Molasses - Jungletown Stompers
TTITLE10=Do Shuffle - Fess Williams
TTITLE11=Four Four Rhythm - Paul Tremaine
TTITLE12=Lovin' Sam - Emmett Miller
TTITLE13=Baby Please Loan Me Your Heart - Papa Charlie Jackson
TTITLE14=You Rascal You - Sam Theard
TTITLE15=Seen Better Days - Texas Alexander, Mississippi Sheiks
TTITLE16=Cotton Patch Rag - John Dilleshaw
TTITLE17=K C Moan - Memphis Jug Band
TTITLE18=Gin Mills Blues - Jimmy Blythe, Ikey Robinson
TTITLE19=Mandolin Rag - H.M. Barnes' Blue Ridge Ramblers
TTITLE20=Jackson Stomp - Mississippi Mud Steppers
TTITLE21=Automobile Stomp - Clifford Hayes
TTITLE22=Handful of Riffs - Eddie Lang, Lonnie Johnson
TTITLE23=Damp Weather - Jones/Collins Astoria Hot Eight
EXTD=
EXTT0=
EXTT1=
EXTT2=
EXTT3=
EXTT4=
EXTT5=
EXTT6=
EXTT7=
EXTT8=
EXTT9=
EXTT10=
EXTT11=
EXTT12=
EXTT13=
EXTT14=
EXTT15=
EXTT16=
EXTT17=
EXTT18=
EXTT19=
EXTT20=
EXTT21=
EXTT22=
EXTT23=
PLAYORDER=
